# xmcd CD database file generated by OrangeCD 5.2
#
# Track frame offsets:
#	150
#	13829
#	31096
#	45496
#	67078
#	88584
#	106518
#	122710
#	139998
#	154572
#	168531
#	185412
#
# Disc length: 2687 seconds
#
# Revision: 3
# Processed by: cddbd v1.5.1PL0 Copyright (c) Steve Scherf et al.
# Submitted via: OrangeCD 5.2
#
DISCID=960a7d0c
DTITLE=Neil Wilde - What Can I Say!!! - Neil Wilde Way [CD2]
DYEAR=2004
DGENRE=Blues
TTITLE0=I Wonder In Whose Arms You Are Tonight
TTITLE1=Me And My Piano
TTITLE2=Down The Road Apiece
TTITLE3=Proud Mary
TTITLE4=Real Gone Lover
TTITLE5=Chantilly Lace
TTITLE6=Cottonfields
TTITLE7=Break-Up
TTITLE8=I Can Help
TTITLE9=Sea Cruise
TTITLE10=Pumpin' Piano Rock
TTITLE11=Boogie Woogie Country Girl
EXTD=
EXTT0=
EXTT1=
EXTT2=
EXTT3=
EXTT4=
EXTT5=
EXTT6=
EXTT7=
EXTT8=
EXTT9=
EXTT10=
EXTT11=
PLAYORDER=
